<mxfile host="app.diagrams.net" modified="2022-05-17T13:25:46.313Z" agent="5.0 (Windows NT 10.0; Win64; x64) AppleWebKit/537.36 (KHTML, like Gecko) Chrome/101.0.4951.54 Safari/537.36" etag="L4CemUEEFYrvYuCnzBoG" version="18.0.4" type="github">
  <diagram id="C5RBs43oDa-KdzZeNtuy" name="Page-1">
    <mxGraphModel dx="2187" dy="799" grid="1" gridSize="10" guides="1" tooltips="1" connect="1" arrows="1" fold="1" page="1" pageScale="1" pageWidth="827" pageHeight="1169" math="0" shadow="0">
      <root>
        <mxCell id="WIyWlLk6GJQsqaUBKTNV-0" />
        <mxCell id="WIyWlLk6GJQsqaUBKTNV-1" parent="WIyWlLk6GJQsqaUBKTNV-0" />
        <mxCell id="hAoPIgUFwtmJyMaXM5UG-0" value="게임종료" style="rounded=1;whiteSpace=wrap;html=1;fontSize=12;glass=0;strokeWidth=1;shadow=0;" vertex="1" parent="WIyWlLk6GJQsqaUBKTNV-1">
          <mxGeometry x="-120" y="1590" width="120" height="40" as="geometry" />
        </mxCell>
        <mxCell id="hAoPIgUFwtmJyMaXM5UG-1" value="yes" style="edgeStyle=orthogonalEdgeStyle;rounded=0;orthogonalLoop=1;jettySize=auto;html=1;exitX=0.5;exitY=1;exitDx=0;exitDy=0;entryX=0.5;entryY=0;entryDx=0;entryDy=0;fontSize=12;startArrow=none;" edge="1" parent="WIyWlLk6GJQsqaUBKTNV-1" target="hAoPIgUFwtmJyMaXM5UG-0">
          <mxGeometry x="-0.4737" y="20" relative="1" as="geometry">
            <mxPoint x="-60" y="1305" as="sourcePoint" />
            <Array as="points">
              <mxPoint x="-60" y="1355" />
              <mxPoint x="-60" y="1355" />
            </Array>
            <mxPoint as="offset" />
          </mxGeometry>
        </mxCell>
        <mxCell id="hAoPIgUFwtmJyMaXM5UG-2" style="edgeStyle=orthogonalEdgeStyle;rounded=0;orthogonalLoop=1;jettySize=auto;html=1;exitX=0.5;exitY=1;exitDx=0;exitDy=0;entryX=0.5;entryY=0;entryDx=0;entryDy=0;fontSize=20;" edge="1" parent="WIyWlLk6GJQsqaUBKTNV-1" source="hAoPIgUFwtmJyMaXM5UG-3" target="hAoPIgUFwtmJyMaXM5UG-7">
          <mxGeometry relative="1" as="geometry" />
        </mxCell>
        <mxCell id="hAoPIgUFwtmJyMaXM5UG-3" value="적 생성" style="rounded=0;whiteSpace=wrap;html=1;fontSize=30;" vertex="1" parent="WIyWlLk6GJQsqaUBKTNV-1">
          <mxGeometry x="-140" y="460" width="160" height="80" as="geometry" />
        </mxCell>
        <mxCell id="hAoPIgUFwtmJyMaXM5UG-4" value="no" style="edgeStyle=orthogonalEdgeStyle;rounded=0;orthogonalLoop=1;jettySize=auto;html=1;exitX=0;exitY=0.5;exitDx=0;exitDy=0;fontSize=12;entryX=-0.018;entryY=0.351;entryDx=0;entryDy=0;entryPerimeter=0;" edge="1" parent="WIyWlLk6GJQsqaUBKTNV-1" source="hAoPIgUFwtmJyMaXM5UG-5" target="hAoPIgUFwtmJyMaXM5UG-3">
          <mxGeometry x="-0.907" y="-20" relative="1" as="geometry">
            <mxPoint x="-150" y="600" as="targetPoint" />
            <Array as="points">
              <mxPoint x="-250" y="1260" />
              <mxPoint x="-250" y="488" />
            </Array>
            <mxPoint as="offset" />
          </mxGeometry>
        </mxCell>
        <mxCell id="hAoPIgUFwtmJyMaXM5UG-5" value="&lt;font style=&quot;font-size: 20px;&quot;&gt;플레이어 hp = 0&lt;/font&gt;" style="rhombus;whiteSpace=wrap;html=1;fontSize=30;" vertex="1" parent="WIyWlLk6GJQsqaUBKTNV-1">
          <mxGeometry x="-160" y="1195" width="200" height="130" as="geometry" />
        </mxCell>
        <mxCell id="hAoPIgUFwtmJyMaXM5UG-6" style="edgeStyle=orthogonalEdgeStyle;rounded=0;orthogonalLoop=1;jettySize=auto;html=1;exitX=0.5;exitY=1;exitDx=0;exitDy=0;entryX=0.5;entryY=0;entryDx=0;entryDy=0;fontSize=12;" edge="1" parent="WIyWlLk6GJQsqaUBKTNV-1" source="hAoPIgUFwtmJyMaXM5UG-7" target="hAoPIgUFwtmJyMaXM5UG-34">
          <mxGeometry relative="1" as="geometry" />
        </mxCell>
        <mxCell id="hAoPIgUFwtmJyMaXM5UG-7" value="&lt;font style=&quot;font-size: 20px;&quot;&gt;적이 플레이어에게 이동&lt;/font&gt;" style="rounded=0;whiteSpace=wrap;html=1;fontSize=20;" vertex="1" parent="WIyWlLk6GJQsqaUBKTNV-1">
          <mxGeometry x="-195" y="600" width="270" height="105" as="geometry" />
        </mxCell>
        <mxCell id="hAoPIgUFwtmJyMaXM5UG-8" value="no" style="edgeStyle=orthogonalEdgeStyle;rounded=0;orthogonalLoop=1;jettySize=auto;html=1;exitX=1;exitY=0.5;exitDx=0;exitDy=0;entryX=0;entryY=0.5;entryDx=0;entryDy=0;fontSize=12;" edge="1" parent="WIyWlLk6GJQsqaUBKTNV-1" source="hAoPIgUFwtmJyMaXM5UG-10" target="hAoPIgUFwtmJyMaXM5UG-13">
          <mxGeometry x="-0.0095" y="9" relative="1" as="geometry">
            <mxPoint x="1" as="offset" />
          </mxGeometry>
        </mxCell>
        <mxCell id="hAoPIgUFwtmJyMaXM5UG-9" value="yes" style="edgeStyle=orthogonalEdgeStyle;rounded=0;orthogonalLoop=1;jettySize=auto;html=1;exitX=0.5;exitY=1;exitDx=0;exitDy=0;entryX=0.5;entryY=0;entryDx=0;entryDy=0;fontSize=12;" edge="1" parent="WIyWlLk6GJQsqaUBKTNV-1" source="hAoPIgUFwtmJyMaXM5UG-10" target="hAoPIgUFwtmJyMaXM5UG-20">
          <mxGeometry y="20" relative="1" as="geometry">
            <mxPoint as="offset" />
          </mxGeometry>
        </mxCell>
        <mxCell id="hAoPIgUFwtmJyMaXM5UG-10" value="&lt;font style=&quot;font-size: 16px;&quot;&gt;적이 플레이어 에게 닿음&lt;/font&gt;" style="rhombus;whiteSpace=wrap;html=1;fontSize=20;" vertex="1" parent="WIyWlLk6GJQsqaUBKTNV-1">
          <mxGeometry x="-170" y="840" width="220" height="130" as="geometry" />
        </mxCell>
        <mxCell id="hAoPIgUFwtmJyMaXM5UG-11" value="yes" style="edgeStyle=orthogonalEdgeStyle;rounded=0;orthogonalLoop=1;jettySize=auto;html=1;exitX=0.5;exitY=1;exitDx=0;exitDy=0;fontSize=12;" edge="1" parent="WIyWlLk6GJQsqaUBKTNV-1" source="hAoPIgUFwtmJyMaXM5UG-13" target="hAoPIgUFwtmJyMaXM5UG-18">
          <mxGeometry x="0.0164" y="20" relative="1" as="geometry">
            <mxPoint as="offset" />
          </mxGeometry>
        </mxCell>
        <mxCell id="hAoPIgUFwtmJyMaXM5UG-12" value="no" style="edgeStyle=orthogonalEdgeStyle;rounded=0;orthogonalLoop=1;jettySize=auto;html=1;exitX=1;exitY=0.5;exitDx=0;exitDy=0;entryX=0.75;entryY=1;entryDx=0;entryDy=0;fontSize=12;" edge="1" parent="WIyWlLk6GJQsqaUBKTNV-1" source="hAoPIgUFwtmJyMaXM5UG-13" target="hAoPIgUFwtmJyMaXM5UG-32">
          <mxGeometry x="-0.7961" y="15" relative="1" as="geometry">
            <Array as="points">
              <mxPoint x="370" y="905" />
            </Array>
            <mxPoint as="offset" />
          </mxGeometry>
        </mxCell>
        <mxCell id="hAoPIgUFwtmJyMaXM5UG-13" value="적이 총알에 맞음" style="rhombus;whiteSpace=wrap;html=1;fontSize=12;" vertex="1" parent="WIyWlLk6GJQsqaUBKTNV-1">
          <mxGeometry x="155" y="845" width="170" height="120" as="geometry" />
        </mxCell>
        <mxCell id="hAoPIgUFwtmJyMaXM5UG-14" value="no" style="edgeStyle=orthogonalEdgeStyle;rounded=0;orthogonalLoop=1;jettySize=auto;html=1;exitX=1;exitY=0.5;exitDx=0;exitDy=0;entryX=1;entryY=0.25;entryDx=0;entryDy=0;fontSize=12;" edge="1" parent="WIyWlLk6GJQsqaUBKTNV-1" source="hAoPIgUFwtmJyMaXM5UG-16" target="hAoPIgUFwtmJyMaXM5UG-7">
          <mxGeometry x="-0.9538" y="18" relative="1" as="geometry">
            <Array as="points">
              <mxPoint x="430" y="1258" />
              <mxPoint x="430" y="626" />
            </Array>
            <mxPoint as="offset" />
          </mxGeometry>
        </mxCell>
        <mxCell id="hAoPIgUFwtmJyMaXM5UG-15" value="yes" style="edgeStyle=orthogonalEdgeStyle;rounded=0;orthogonalLoop=1;jettySize=auto;html=1;exitX=0.5;exitY=1;exitDx=0;exitDy=0;entryX=0.5;entryY=0;entryDx=0;entryDy=0;fontSize=12;" edge="1" parent="WIyWlLk6GJQsqaUBKTNV-1" source="hAoPIgUFwtmJyMaXM5UG-16">
          <mxGeometry x="0.0256" y="20" relative="1" as="geometry">
            <mxPoint x="240" y="1359" as="targetPoint" />
            <mxPoint as="offset" />
          </mxGeometry>
        </mxCell>
        <mxCell id="hAoPIgUFwtmJyMaXM5UG-16" value="적 hp 0" style="rhombus;whiteSpace=wrap;html=1;fontSize=12;" vertex="1" parent="WIyWlLk6GJQsqaUBKTNV-1">
          <mxGeometry x="140" y="1195" width="200" height="125" as="geometry" />
        </mxCell>
        <mxCell id="hAoPIgUFwtmJyMaXM5UG-17" style="edgeStyle=orthogonalEdgeStyle;rounded=0;orthogonalLoop=1;jettySize=auto;html=1;exitX=0.5;exitY=1;exitDx=0;exitDy=0;entryX=0.5;entryY=0;entryDx=0;entryDy=0;fontSize=12;" edge="1" parent="WIyWlLk6GJQsqaUBKTNV-1" source="hAoPIgUFwtmJyMaXM5UG-18" target="hAoPIgUFwtmJyMaXM5UG-16">
          <mxGeometry relative="1" as="geometry" />
        </mxCell>
        <mxCell id="hAoPIgUFwtmJyMaXM5UG-18" value="총알 소멸 및 적 hp 감소 ,크기감소" style="rounded=0;whiteSpace=wrap;html=1;fontSize=12;" vertex="1" parent="WIyWlLk6GJQsqaUBKTNV-1">
          <mxGeometry x="170" y="1040" width="140" height="70" as="geometry" />
        </mxCell>
        <mxCell id="hAoPIgUFwtmJyMaXM5UG-19" style="edgeStyle=orthogonalEdgeStyle;rounded=0;orthogonalLoop=1;jettySize=auto;html=1;exitX=0.5;exitY=1;exitDx=0;exitDy=0;entryX=0.5;entryY=0;entryDx=0;entryDy=0;fontSize=12;" edge="1" parent="WIyWlLk6GJQsqaUBKTNV-1" source="hAoPIgUFwtmJyMaXM5UG-20" target="hAoPIgUFwtmJyMaXM5UG-5">
          <mxGeometry relative="1" as="geometry" />
        </mxCell>
        <mxCell id="hAoPIgUFwtmJyMaXM5UG-20" value="플레이어 hp감소 및 적 소멸" style="rounded=0;whiteSpace=wrap;html=1;fontSize=12;" vertex="1" parent="WIyWlLk6GJQsqaUBKTNV-1">
          <mxGeometry x="-151.5" y="1040" width="183" height="90" as="geometry" />
        </mxCell>
        <mxCell id="hAoPIgUFwtmJyMaXM5UG-21" value="no" style="edgeStyle=orthogonalEdgeStyle;rounded=0;orthogonalLoop=1;jettySize=auto;html=1;exitX=0;exitY=0.5;exitDx=0;exitDy=0;fontSize=12;" edge="1" parent="WIyWlLk6GJQsqaUBKTNV-1">
          <mxGeometry x="-0.8207" y="-10" relative="1" as="geometry">
            <mxPoint x="-60" y="1450" as="targetPoint" />
            <mxPoint x="142.5" y="1610" as="sourcePoint" />
            <Array as="points">
              <mxPoint x="70" y="1610" />
              <mxPoint x="70" y="1450" />
              <mxPoint x="-40" y="1450" />
            </Array>
            <mxPoint as="offset" />
          </mxGeometry>
        </mxCell>
        <mxCell id="hAoPIgUFwtmJyMaXM5UG-22" value="yes" style="edgeStyle=orthogonalEdgeStyle;rounded=0;orthogonalLoop=1;jettySize=auto;html=1;exitX=1;exitY=0.5;exitDx=0;exitDy=0;fontSize=12;entryX=1;entryY=0.375;entryDx=0;entryDy=0;entryPerimeter=0;" edge="1" parent="WIyWlLk6GJQsqaUBKTNV-1" target="hAoPIgUFwtmJyMaXM5UG-3">
          <mxGeometry x="-0.9108" y="20" relative="1" as="geometry">
            <mxPoint x="440" y="1120" as="targetPoint" />
            <mxPoint x="342.5" y="1610" as="sourcePoint" />
            <Array as="points">
              <mxPoint x="490" y="1610" />
              <mxPoint x="490" y="490" />
            </Array>
            <mxPoint as="offset" />
          </mxGeometry>
        </mxCell>
        <mxCell id="hAoPIgUFwtmJyMaXM5UG-23" value="플레이어가 살아있나요?" style="rhombus;whiteSpace=wrap;html=1;rounded=0;fontSize=12;" vertex="1" parent="WIyWlLk6GJQsqaUBKTNV-1">
          <mxGeometry x="142.5" y="1550" width="200" height="120" as="geometry" />
        </mxCell>
        <mxCell id="hAoPIgUFwtmJyMaXM5UG-24" value="점수 출력" style="rounded=0;whiteSpace=wrap;html=1;fontSize=12;fillColor=default;" vertex="1" parent="WIyWlLk6GJQsqaUBKTNV-1">
          <mxGeometry x="-120" y="1480" width="120" height="60" as="geometry" />
        </mxCell>
        <mxCell id="hAoPIgUFwtmJyMaXM5UG-25" style="edgeStyle=orthogonalEdgeStyle;rounded=0;orthogonalLoop=1;jettySize=auto;html=1;exitX=0.5;exitY=1;exitDx=0;exitDy=0;fontSize=12;" edge="1" parent="WIyWlLk6GJQsqaUBKTNV-1" source="hAoPIgUFwtmJyMaXM5UG-26" target="hAoPIgUFwtmJyMaXM5UG-3">
          <mxGeometry relative="1" as="geometry" />
        </mxCell>
        <mxCell id="hAoPIgUFwtmJyMaXM5UG-26" value="총알 개수 선택" style="rounded=0;whiteSpace=wrap;html=1;fontSize=12;" vertex="1" parent="WIyWlLk6GJQsqaUBKTNV-1">
          <mxGeometry x="-165" y="310" width="210" height="100" as="geometry" />
        </mxCell>
        <mxCell id="hAoPIgUFwtmJyMaXM5UG-27" style="edgeStyle=orthogonalEdgeStyle;rounded=0;orthogonalLoop=1;jettySize=auto;html=1;exitX=0.5;exitY=1;exitDx=0;exitDy=0;entryX=0.5;entryY=0;entryDx=0;entryDy=0;fontSize=12;" edge="1" parent="WIyWlLk6GJQsqaUBKTNV-1" source="hAoPIgUFwtmJyMaXM5UG-28" target="hAoPIgUFwtmJyMaXM5UG-26">
          <mxGeometry relative="1" as="geometry" />
        </mxCell>
        <mxCell id="hAoPIgUFwtmJyMaXM5UG-28" value="게임 시작" style="rounded=1;whiteSpace=wrap;html=1;fontSize=12;" vertex="1" parent="WIyWlLk6GJQsqaUBKTNV-1">
          <mxGeometry x="-120" y="190" width="120" height="60" as="geometry" />
        </mxCell>
        <mxCell id="hAoPIgUFwtmJyMaXM5UG-29" style="edgeStyle=orthogonalEdgeStyle;rounded=0;orthogonalLoop=1;jettySize=auto;html=1;exitX=0.5;exitY=1;exitDx=0;exitDy=0;entryX=0.5;entryY=0;entryDx=0;entryDy=0;fontSize=12;" edge="1" parent="WIyWlLk6GJQsqaUBKTNV-1" source="hAoPIgUFwtmJyMaXM5UG-30">
          <mxGeometry relative="1" as="geometry">
            <mxPoint x="242.5" y="1550" as="targetPoint" />
          </mxGeometry>
        </mxCell>
        <mxCell id="hAoPIgUFwtmJyMaXM5UG-30" value="점수 획득" style="rounded=0;whiteSpace=wrap;html=1;fontSize=12;" vertex="1" parent="WIyWlLk6GJQsqaUBKTNV-1">
          <mxGeometry x="155" y="1359" width="175" height="101" as="geometry" />
        </mxCell>
        <mxCell id="hAoPIgUFwtmJyMaXM5UG-31" style="edgeStyle=orthogonalEdgeStyle;rounded=0;orthogonalLoop=1;jettySize=auto;html=1;exitX=0;exitY=0.5;exitDx=0;exitDy=0;fontSize=12;" edge="1" parent="WIyWlLk6GJQsqaUBKTNV-1" source="hAoPIgUFwtmJyMaXM5UG-32">
          <mxGeometry relative="1" as="geometry">
            <mxPoint x="80" y="670" as="targetPoint" />
            <Array as="points">
              <mxPoint x="280" y="670" />
            </Array>
          </mxGeometry>
        </mxCell>
        <mxCell id="hAoPIgUFwtmJyMaXM5UG-32" value="맵 밖으로 총알이 나가면 총알 소멸&amp;nbsp;" style="rounded=0;whiteSpace=wrap;html=1;fontSize=12;" vertex="1" parent="WIyWlLk6GJQsqaUBKTNV-1">
          <mxGeometry x="280" y="645" width="120" height="60" as="geometry" />
        </mxCell>
        <mxCell id="hAoPIgUFwtmJyMaXM5UG-33" style="edgeStyle=orthogonalEdgeStyle;rounded=0;orthogonalLoop=1;jettySize=auto;html=1;exitX=0.5;exitY=1;exitDx=0;exitDy=0;entryX=0.5;entryY=0;entryDx=0;entryDy=0;fontSize=16;" edge="1" parent="WIyWlLk6GJQsqaUBKTNV-1" source="hAoPIgUFwtmJyMaXM5UG-34" target="hAoPIgUFwtmJyMaXM5UG-10">
          <mxGeometry relative="1" as="geometry" />
        </mxCell>
        <mxCell id="hAoPIgUFwtmJyMaXM5UG-34" value="클릭 시 총알 발사" style="rounded=0;whiteSpace=wrap;html=1;fontSize=12;fillColor=default;" vertex="1" parent="WIyWlLk6GJQsqaUBKTNV-1">
          <mxGeometry x="-120" y="745" width="120" height="60" as="geometry" />
        </mxCell>
      </root>
    </mxGraphModel>
  </diagram>
</mxfile>
